<?xml version="1.0" standalone="no"?><!DOCTYPE svg PUBLIC "-//W3C//DTD SVG 1.1//EN" "http://www.w3.org/Graphics/SVG/1.1/DTD/svg11.dtd"><svg t="1652234702952" class="icon" viewBox="0 0 1129 1024" version="1.1" xmlns="http://www.w3.org/2000/svg" p-id="1453" xmlns:xlink="http://www.w3.org/1999/xlink" width="220.5078125" height="200"><defs><style type="text/css">@font-face { font-family: feedback-iconfont; src: url("//at.alicdn.com/t/font_1031158_u69w8yhxdu.woff2?t=1630033759944") format("woff2"), url("//at.alicdn.com/t/font_1031158_u69w8yhxdu.woff?t=1630033759944") format("woff"), url("//at.alicdn.com/t/font_1031158_u69w8yhxdu.ttf?t=1630033759944") format("truetype"); }
</style></defs><path d="M557.903448 775.062069c-108.049655 0-231.106207-38.311724-357.517241-152.893793a17.655172 17.655172 0 0 1-3.707586-21.186207l187.144827-359.812414a17.655172 17.655172 0 0 1 15.536552-9.533793h331.211034a17.655172 17.655172 0 0 1 15.536552 9.533793L933.252414 600.275862a17.655172 17.655172 0 0 1-3.177931 20.656552c-2.295172 3.001379-157.484138 154.129655-372.171035 154.129655z m-323.61931-170.01931c319.028966 279.304828 605.748966 50.670345 661.53931 0l-176.551724-338.449656H410.129655z" fill="#3164AF" p-id="1454"></path><path d="M573.969655 454.091034a221.042759 221.042759 0 0 1-127.823448-46.433103l21.715862-27.895172c4.590345 3.531034 111.933793 85.097931 187.144828 2.11862L681.136552 406.068966a140.182069 140.182069 0 0 1-107.166897 48.022068zM583.503448 582.62069a426.372414 426.372414 0 0 1-197.914482-57.026207l17.655172-30.190345c1.942069 1.235862 192.088276 112.993103 314.968276 2.118621L741.517241 523.475862A229.517241 229.517241 0 0 1 583.503448 582.62069z" fill="#3164AF" p-id="1455"></path></svg>